<svg width="112" height="124" viewBox="0 0 112 124" fill="none" xmlns="http://www.w3.org/2000/svg">
<path d="M7.6501 0.450012H104.75C108.45 0.450012 111.55 3.45001 111.55 7.25001V116.75C111.55 120.45 108.55 123.55 104.75 123.55H7.6501C3.8501 123.45 0.850098 120.45 0.850098 116.65V7.25001C0.850098 3.45001 3.8501 0.450012 7.6501 0.450012Z" fill="#07484A"/>
<path fill-rule="evenodd" clip-rule="evenodd" d="M41.0501 54.45C42.3501 54.55 43.3501 55.65 43.3501 57.05C43.3501 58.45 42.1501 59.65 40.7501 59.65H23.3501L24.4501 63.65C25.7501 68.45 22.9501 69.95 19.2501 71.75C16.1501 73.35 12.0501 75.35 12.0501 82.75C12.0501 93.15 20.7501 107.35 23.3501 111.35H38.7501V71.25C38.7501 70.95 38.7501 70.75 38.8501 70.45C38.8501 70.35 38.8501 70.15 38.8501 69.95C38.8501 68.55 40.0501 67.35 41.4501 67.35H49.3501V11.25C49.3501 9.85001 50.5501 8.65001 51.9501 8.65001C53.3501 8.65001 54.5501 9.85001 54.5501 11.25V55.75H102.15C103.55 55.75 104.75 56.95 104.75 58.35V70.15V114.05C104.75 115.45 103.55 116.65 102.15 116.65C100.75 116.65 99.5501 115.45 99.5501 114.05V79.65H54.5501V113.95C54.5501 115.35 53.3501 116.55 51.9501 116.55C50.5501 116.55 49.3501 115.35 49.3501 113.95V72.65H43.9501V113.95C43.9501 115.35 42.7501 116.55 41.3501 116.55C41.2501 116.55 41.1501 116.55 41.0501 116.55C40.9501 116.55 40.8501 116.55 40.7501 116.55H21.0501C19.6501 116.55 18.4501 115.35 18.4501 113.95C18.4501 113.75 18.4501 113.55 18.5501 113.45C15.2501 108.15 6.8501 93.85 6.8501 82.75C6.8501 72.25 12.5501 69.35 16.8501 67.15C18.4501 66.35 19.6501 65.75 19.4501 64.95L17.5501 57.85C17.4501 57.55 17.4501 57.35 17.4501 57.05C17.4501 55.65 18.6501 54.45 20.0501 54.45H24.5501C23.3501 52.45 22.0501 50.25 20.9501 48.05C18.9501 44.35 17.0501 40.55 15.6501 37.15C13.4501 32.05 12.0501 27.65 11.5501 24.25C11.1501 21.95 11.0501 19.95 11.3501 18.45C11.7501 16.35 12.7501 14.85 14.3501 14.15C14.6501 14.05 15.0501 13.95 15.3501 13.85C17.8501 13.45 20.9501 15.35 24.1501 19.45C25.1501 20.65 26.0501 22.15 27.0501 23.75C27.3501 20.15 27.8501 17.15 28.6501 14.75C30.0501 10.05 32.4501 7.45001 35.4501 7.45001C38.3501 7.45001 40.7501 10.05 42.2501 14.75C43.3501 18.25 44.0501 23.25 44.0501 29.45C44.0501 34.15 43.6501 39.65 42.9501 44.65C42.4501 48.25 41.7501 51.75 41.0501 54.45ZM21.7501 74.55C20.4501 75.75 19.3501 77.15 18.4501 78.95C17.7501 80.45 17.3501 82.25 17.3501 84.25C17.3501 93.75 26.2501 106.65 26.2501 106.75C26.7501 107.55 27.8501 107.75 28.6501 107.25C29.4501 106.75 29.6501 105.65 29.1501 104.85C29.1501 104.85 20.8501 92.75 20.8501 84.35C20.8501 82.85 21.1501 81.65 21.6501 80.55C22.2501 79.25 23.1501 78.15 24.1501 77.25C24.8501 76.65 24.8501 75.55 24.2501 74.85C23.6501 74.15 22.4501 73.95 21.7501 74.55ZM54.5501 76.25H99.5501V72.65H54.5501V76.25ZM54.5501 67.45H99.5501V60.85H54.5501V67.45ZM29.2501 52.35C28.7501 50.05 28.2501 47.35 27.8501 44.55C27.4501 41.45 27.1501 38.15 26.9501 35.05C24.6501 29.65 22.2501 25.45 20.0501 22.65C18.2501 20.35 16.9501 19.15 16.1501 19.05C16.1501 19.05 16.2501 19.15 16.2501 19.45C16.0501 20.35 16.1501 21.75 16.4501 23.45C16.9501 26.45 18.2501 30.45 20.2501 35.15C21.6501 38.45 23.4501 42.05 25.3501 45.65C26.6501 47.95 27.9501 50.25 29.2501 52.35ZM35.1501 54.45H35.5501C36.4501 51.85 37.1501 48.15 37.7501 43.95C38.3501 39.15 38.7501 33.95 38.7501 29.35C38.7501 23.75 38.1501 19.25 37.2501 16.15C36.5501 13.85 35.8501 12.55 35.3501 12.55C34.8501 12.55 34.1501 13.85 33.4501 16.15C32.5501 19.25 31.9501 23.65 31.9501 29.35C31.9501 33.85 32.3501 39.05 32.9501 43.75C33.5501 48.05 34.3501 51.85 35.1501 54.45Z" fill="white"/>
</svg>
